<svg width="136" height="136" viewBox="0 0 136 136" fill="none" xmlns="http://www.w3.org/2000/svg">
<path d="M68 0.899979C105.3 0.899979 135.5 31.2 135.5 68.4C135.5 105.7 105.3 135.9 68 135.9C30.7 135.9 0.5 105.7 0.5 68.4C0.5 31.2 30.7 0.899979 68 0.899979Z" fill="white"/>
<path fill-rule="evenodd" clip-rule="evenodd" d="M85.5 26.2C90 26.4 93.1 27.1 95.8 28.2C98.6 29.3 101 30.7 103.4 33.1C105.7 35.4 107.2 37.8 108.3 40.6C109.3 43.3 110 46.4 110.2 50.9C110.5 55.5 110.5 56.9 110.5 68.4C110.5 80 110.5 81.4 110.2 86C110 90.5 109.3 93.6 108.3 96.3C107.2 99.1 105.7 101.4 103.4 103.8C101 106.2 98.6 107.6 95.8 108.7C93.1 109.8 90 110.5 85.5 110.7C81 110.9 79.5 110.9 68 110.9C56.5 110.9 55 110.9 50.5 110.7C46 110.5 42.9 109.8 40.2 108.7C37.4 107.6 35 106.2 32.6 103.8C30.3 101.4 28.8 99.1 27.7 96.3C26.7 93.6 26 90.5 25.8 86C25.5 81.4 25.5 80 25.5 68.4C25.5 56.9 25.5 55.5 25.8 50.9C26 46.4 26.7 43.3 27.7 40.6C28.8 37.8 30.3 35.4 32.6 33.1C35 30.7 37.4 29.3 40.2 28.2C42.9 27.1 46 26.4 50.5 26.2C55 26 56.5 25.9 68 25.9C79.5 25.9 81 26 85.5 26.2ZM50.8 33.9C46.7 34 44.4 34.7 42.9 35.3C41 36.1 39.5 37 38 38.5C36.6 40 35.6 41.4 34.9 43.4C34.3 44.9 33.6 47.1 33.4 51.3C33.2 55.8 33.2 57.1 33.2 68.4C33.2 79.8 33.2 81.1 33.4 85.6C33.6 89.8 34.3 92 34.9 93.5C35.6 95.5 36.6 96.9 38 98.4C39.5 99.9 41 100.8 42.9 101.6C44.4 102.2 46.7 102.9 50.8 103C55.3 103.2 56.7 103.3 68 103.3C79.3 103.3 80.7 103.2 85.2 103C89.3 102.9 91.6 102.2 93.1 101.6C95 100.8 96.5 99.9 98 98.4C99.4 96.9 100.4 95.5 101.1 93.5C101.7 92 102.4 89.8 102.6 85.6C102.8 81.1 102.8 79.8 102.8 68.4C102.8 57.1 102.8 55.8 102.6 51.3C102.4 47.1 101.7 44.9 101.1 43.4C100.4 41.4 99.4 40 98 38.5C96.5 37 95 36.1 93.1 35.3C91.6 34.7 89.3 34 85.2 33.9C80.7 33.6 79.3 33.6 68 33.6C56.7 33.6 55.3 33.6 50.8 33.9Z" fill="#30A298"/>
<path fill-rule="evenodd" clip-rule="evenodd" d="M89.8 68.4C89.8 80.5 80.1 90.3 68 90.3C55.9 90.3 46.2 80.5 46.2 68.4C46.2 56.4 55.9 46.6 68 46.6C80.1 46.6 89.8 56.4 89.8 68.4ZM82.2 68.4C82.2 60.6 75.8 54.3 68 54.3C60.2 54.3 53.8 60.6 53.8 68.4C53.8 76.3 60.2 82.6 68 82.6C75.8 82.6 82.2 76.3 82.2 68.4Z" fill="#30A298"/>
<path d="M95.8 45.8C95.8 48.6 93.5 50.9 90.7 50.9C87.9 50.9 85.6 48.6 85.6 45.8C85.6 42.9 87.9 40.7 90.7 40.7C93.5 40.7 95.8 42.9 95.8 45.8Z" fill="#30A298"/>
</svg>
