<svg width="136" height="136" viewBox="0 0 136 136" fill="none" xmlns="http://www.w3.org/2000/svg">
<path d="M135.2 68.4C135.2 31.2 104.9 0.899979 67.7 0.899979C30.4 0.899979 0.199997 31.2 0.199997 68.4C0.199997 102.1 24.9 130.1 57.1 135.1V88H40V68.4H57.1V53.6C57.1 36.7 67.2 27.3 82.6 27.3C90 27.3 97.7 28.6 97.7 28.6V45.2H89.2C80.8 45.2 78.2 50.4 78.2 55.8V68.4H96.9L93.9 88H78.2V135.1C110.5 130.1 135.2 102.1 135.2 68.4Z" fill="white"/>
<path d="M93.9 88L96.9 68.4H78.2V55.8C78.2 50.4 80.8 45.2 89.2 45.2H97.7V28.6C97.7 28.6 90 27.3 82.6 27.3C67.2 27.3 57.1 36.7 57.1 53.6V68.4H40V88H57.1V135.1C60.5667 135.633 64.1 135.9 67.7 135.9C71.3 135.9 74.8 135.633 78.2 135.1V88H93.9Z" fill="#30A298"/>
</svg>
